<?xml version="1.0" standalone="no"?>
<!DOCTYPE svg PUBLIC "-//W3C//DTD SVG 20010904//EN"
 "http://www.w3.org/TR/2001/REC-SVG-20010904/DTD/svg10.dtd">
<svg version="1.0" xmlns="http://www.w3.org/2000/svg"
 width="300.000000pt" height="300.000000pt" viewBox="0 0 300.000000 300.000000"
 preserveAspectRatio="xMidYMid meet">
<metadata>
Created by potrace 1.11, written by Peter Selinger 2001-2013
</metadata>
<g transform="translate(0.000000,300.000000) scale(0.100000,-0.100000)"
fill="#000000" stroke="none">
<path d="M105 2476 c-20 -14 -20 -29 -25 -1033 -3 -560 -2 -1025 2 -1034 4 -9
15 -20 25 -25 25 -12 502 -14 664 -3 315 21 458 76 596 230 56 62 127 186 138
239 4 19 18 73 31 120 34 119 47 302 40 565 -4 176 -10 235 -26 295 -11 41
-27 104 -35 140 -34 140 -121 270 -247 367 -76 58 -153 88 -313 120 -123 25
-150 27 -480 30 -298 4 -353 2 -370 -11z m728 -335 c105 -28 132 -42 206 -109
64 -58 84 -96 126 -242 15 -52 36 -290 35 -400 -1 -118 -25 -311 -44 -355 -10
-22 -26 -67 -37 -101 -16 -51 -28 -69 -76 -111 -78 -67 -89 -72 -233 -105
-151 -34 -311 -39 -342 -11 -17 15 -18 51 -18 724 0 654 1 709 17 725 15 15
33 16 153 11 86 -4 163 -13 213 -26z"/>
<path d="M1763 2480 c-12 -5 -24 -17 -27 -27 -3 -10 -5 -476 -5 -1036 l1
-1017 22 -12 c13 -8 76 -12 174 -13 142 0 155 2 168 20 12 16 14 88 14 439 -1
365 1 421 14 435 14 13 58 15 340 12 212 -2 331 1 344 8 34 18 44 62 40 176
-5 158 24 147 -381 144 -312 -2 -331 -1 -343 16 -19 26 -20 520 -1 532 6 4
185 8 397 8 291 1 397 4 433 14 l47 13 0 132 0 132 -32 14 c-27 12 -132 15
-608 17 -320 1 -585 -2 -597 -7z"/>
</g>
</svg>
